<svg width="144" height="56" viewBox="0 0 144 56" fill="none" xmlns="http://www.w3.org/2000/svg">
<g style="mix-blend-mode:overlay">
<path fill-rule="evenodd" clip-rule="evenodd" d="M48.4814 45.7942C49.679 46.6646 51.3679 46.4049 52.1199 45.1296C54.2739 41.4761 55.576 37.3701 55.9126 33.1189C56.32 27.9743 55.2976 22.8171 52.9584 18.217C50.6191 13.6168 47.054 9.75266 42.6568 7.05122C38.2596 4.34979 33.2013 2.91618 28.0405 2.90872C25.2765 2.90472 22.5407 3.3099 19.9189 4.10018C21.187 5.10774 22 6.66326 22 8.40869C22 8.63987 21.9858 8.86771 21.9581 9.09139C23.9271 8.54609 25.9702 8.26728 28.0327 8.27026C32.2053 8.27629 36.295 9.43539 39.8503 11.6195C43.4055 13.8037 46.2879 16.9279 48.1793 20.6472C50.0706 24.3665 50.8972 28.5362 50.5678 32.6957C50.3092 35.9613 49.3461 39.1209 47.757 41.9614C47.0341 43.2535 47.2837 44.9238 48.4814 45.7942ZM13.8559 13.2326C12.2216 12.3349 11.0928 10.6307 11.0055 8.6559C7.6988 11.1812 4.98625 14.4199 3.07846 18.1448C0.725914 22.7382 -0.311387 27.8924 0.0811063 33.0382C0.405437 37.2904 1.69564 41.4001 3.83912 45.0597C4.58739 46.3373 6.27553 46.6019 7.4757 45.7349C8.67587 44.8679 8.93026 43.1984 8.21116 41.9042C6.6303 39.0591 5.67626 35.8967 5.42713 32.6304C5.10979 28.47 5.94846 24.3027 7.85053 20.5889C9.31465 17.7302 11.365 15.2258 13.8559 13.2326Z" fill="white"/>
</g>
<g style="mix-blend-mode:soft-light">
<path fill-rule="evenodd" clip-rule="evenodd" d="M48.4814 45.7942C49.679 46.6646 51.3679 46.4049 52.1199 45.1296C54.2739 41.4761 55.576 37.3701 55.9126 33.1189C56.32 27.9743 55.2976 22.8171 52.9584 18.217C50.6191 13.6168 47.054 9.75266 42.6568 7.05122C38.2596 4.34979 33.2013 2.91618 28.0405 2.90872C25.2765 2.90472 22.5407 3.3099 19.9189 4.10018C21.187 5.10774 22 6.66326 22 8.40869C22 8.63987 21.9858 8.86771 21.9581 9.09139C23.9271 8.54609 25.9702 8.26728 28.0327 8.27026C32.2053 8.27629 36.295 9.43539 39.8503 11.6195C43.4055 13.8037 46.2879 16.9279 48.1793 20.6472C50.0706 24.3665 50.8972 28.5362 50.5678 32.6957C50.3092 35.9613 49.3461 39.1209 47.757 41.9614C47.0341 43.2535 47.2837 44.9238 48.4814 45.7942ZM13.8559 13.2326C12.2216 12.3349 11.0928 10.6307 11.0055 8.6559C7.6988 11.1812 4.98625 14.4199 3.07846 18.1448C0.725914 22.7382 -0.311387 27.8924 0.0811063 33.0382C0.405437 37.2904 1.69564 41.4001 3.83912 45.0597C4.58739 46.3373 6.27553 46.6019 7.4757 45.7349C8.67587 44.8679 8.93026 43.1984 8.21116 41.9042C6.6303 39.0591 5.67626 35.8967 5.42713 32.6304C5.10979 28.47 5.94846 24.3027 7.85053 20.5889C9.31465 17.7302 11.365 15.2258 13.8559 13.2326Z" fill="white" fill-opacity="0.35"/>
</g>
<path style="mix-blend-mode:overlay" fill-rule="evenodd" clip-rule="evenodd" d="M48.4814 45.7942C49.679 46.6646 51.3679 46.4049 52.1199 45.1296C54.2739 41.4761 55.576 37.3701 55.9126 33.1189C56.32 27.9743 55.2976 22.8171 52.9584 18.217C50.6191 13.6168 47.054 9.75266 42.6568 7.05122C38.2596 4.34979 33.2013 2.91618 28.0405 2.90872C25.2765 2.90472 22.5407 3.3099 19.9189 4.10018C21.187 5.10774 22 6.66326 22 8.40869C22 8.63987 21.9858 8.86771 21.9581 9.09139C23.9271 8.54609 25.9702 8.26728 28.0327 8.27026C32.2053 8.27629 36.295 9.43539 39.8503 11.6195C43.4055 13.8037 46.2879 16.9279 48.1793 20.6472C50.0706 24.3665 50.8972 28.5362 50.5678 32.6957C50.3092 35.9613 49.3461 39.1209 47.757 41.9614C47.0341 43.2535 47.2837 44.9238 48.4814 45.7942ZM13.8559 13.2326C12.2216 12.3349 11.0928 10.6307 11.0055 8.6559C7.6988 11.1812 4.98625 14.4199 3.07846 18.1448C0.725914 22.7382 -0.311387 27.8924 0.0811063 33.0382C0.405437 37.2904 1.69564 41.4001 3.83912 45.0597C4.58739 46.3373 6.27553 46.6019 7.4757 45.7349C8.67587 44.8679 8.93026 43.1984 8.21116 41.9042C6.6303 39.0591 5.67626 35.8967 5.42713 32.6304C5.10979 28.47 5.94846 24.3027 7.85053 20.5889C9.31465 17.7302 11.365 15.2258 13.8559 13.2326Z" fill="url(#paint0_linear_1404_15958)" fill-opacity="0.35"/>
<g style="mix-blend-mode:overlay">
<path d="M15.0564 53.0913C16.6193 53.0913 17.7688 51.9688 17.7688 50.4219V50.4111C17.7688 48.9233 16.6838 47.8169 15.2282 47.8169C14.1809 47.8169 13.4504 48.3809 13.1657 49.0147H13.0637C13.0637 48.9556 13.0637 48.8911 13.0691 48.832C13.1281 47.2153 13.7028 45.8403 15.1101 45.8403C15.8942 45.8403 16.4367 46.2432 16.6731 46.8931L16.6945 46.9522H17.6667L17.6506 46.8823C17.3874 45.7383 16.4206 44.9756 15.1208 44.9756C13.2409 44.9756 12.1399 46.5225 12.1399 49.165V49.1758C12.1399 52.0923 13.6384 53.0913 15.0564 53.0913ZM13.2946 50.4111V50.4058C13.2946 49.396 14.0573 48.6602 15.0617 48.6602C16.0661 48.6602 16.7966 49.4014 16.7966 50.4326V50.4434C16.7966 51.4478 16.0178 52.2373 15.0456 52.2373C14.0627 52.2373 13.2946 51.4316 13.2946 50.4111ZM22.035 53.0376C23.6785 53.0376 24.8494 52.1138 24.8494 50.814V50.8032C24.8494 49.8472 24.178 49.0523 23.1844 48.8213V48.7998C24.033 48.5366 24.5701 47.8921 24.5701 47.0757V47.0649C24.5701 45.8941 23.5013 45.0293 22.035 45.0293C20.5686 45.0293 19.4998 45.8941 19.4998 47.0649V47.0757C19.4998 47.8921 20.0369 48.5366 20.8855 48.7998V48.8213C19.8919 49.0523 19.2205 49.8472 19.2205 50.8032V50.814C19.2205 52.1138 20.3914 53.0376 22.035 53.0376ZM22.035 48.4399C21.1004 48.4399 20.4612 47.9082 20.4612 47.1563V47.1455C20.4612 46.3936 21.1004 45.8618 22.035 45.8618C22.9695 45.8618 23.6087 46.3936 23.6087 47.1455V47.1563C23.6087 47.9082 22.9695 48.4399 22.035 48.4399ZM22.035 52.1943C20.9661 52.1943 20.2034 51.5928 20.2034 50.7549V50.7441C20.2034 49.8955 20.9607 49.2886 22.035 49.2886C23.1092 49.2886 23.8665 49.8955 23.8665 50.7441V50.7549C23.8665 51.5928 23.1038 52.1943 22.035 52.1943Z" fill="white"/>
</g>
<g style="mix-blend-mode:soft-light">
<path d="M15.0564 53.0913C16.6193 53.0913 17.7688 51.9688 17.7688 50.4219V50.4111C17.7688 48.9233 16.6838 47.8169 15.2282 47.8169C14.1809 47.8169 13.4504 48.3809 13.1657 49.0147H13.0637C13.0637 48.9556 13.0637 48.8911 13.0691 48.832C13.1281 47.2153 13.7028 45.8403 15.1101 45.8403C15.8942 45.8403 16.4367 46.2432 16.6731 46.8931L16.6945 46.9522H17.6667L17.6506 46.8823C17.3874 45.7383 16.4206 44.9756 15.1208 44.9756C13.2409 44.9756 12.1399 46.5225 12.1399 49.165V49.1758C12.1399 52.0923 13.6384 53.0913 15.0564 53.0913ZM13.2946 50.4111V50.4058C13.2946 49.396 14.0573 48.6602 15.0617 48.6602C16.0661 48.6602 16.7966 49.4014 16.7966 50.4326V50.4434C16.7966 51.4478 16.0178 52.2373 15.0456 52.2373C14.0627 52.2373 13.2946 51.4316 13.2946 50.4111ZM22.035 53.0376C23.6785 53.0376 24.8494 52.1138 24.8494 50.814V50.8032C24.8494 49.8472 24.178 49.0523 23.1844 48.8213V48.7998C24.033 48.5366 24.5701 47.8921 24.5701 47.0757V47.0649C24.5701 45.8941 23.5013 45.0293 22.035 45.0293C20.5686 45.0293 19.4998 45.8941 19.4998 47.0649V47.0757C19.4998 47.8921 20.0369 48.5366 20.8855 48.7998V48.8213C19.8919 49.0523 19.2205 49.8472 19.2205 50.8032V50.814C19.2205 52.1138 20.3914 53.0376 22.035 53.0376ZM22.035 48.4399C21.1004 48.4399 20.4612 47.9082 20.4612 47.1563V47.1455C20.4612 46.3936 21.1004 45.8618 22.035 45.8618C22.9695 45.8618 23.6087 46.3936 23.6087 47.1455V47.1563C23.6087 47.9082 22.9695 48.4399 22.035 48.4399ZM22.035 52.1943C20.9661 52.1943 20.2034 51.5928 20.2034 50.7549V50.7441C20.2034 49.8955 20.9607 49.2886 22.035 49.2886C23.1092 49.2886 23.8665 49.8955 23.8665 50.7441V50.7549C23.8665 51.5928 23.1038 52.1943 22.035 52.1943Z" fill="white" fill-opacity="0.35"/>
</g>
<path style="mix-blend-mode:overlay" d="M15.0564 53.0913C16.6193 53.0913 17.7688 51.9688 17.7688 50.4219V50.4111C17.7688 48.9233 16.6838 47.8169 15.2282 47.8169C14.1809 47.8169 13.4504 48.3809 13.1657 49.0147H13.0637C13.0637 48.9556 13.0637 48.8911 13.0691 48.832C13.1281 47.2153 13.7028 45.8403 15.1101 45.8403C15.8942 45.8403 16.4367 46.2432 16.6731 46.8931L16.6945 46.9522H17.6667L17.6506 46.8823C17.3874 45.7383 16.4206 44.9756 15.1208 44.9756C13.2409 44.9756 12.1399 46.5225 12.1399 49.165V49.1758C12.1399 52.0923 13.6384 53.0913 15.0564 53.0913ZM13.2946 50.4111V50.4058C13.2946 49.396 14.0573 48.6602 15.0617 48.6602C16.0661 48.6602 16.7966 49.4014 16.7966 50.4326V50.4434C16.7966 51.4478 16.0178 52.2373 15.0456 52.2373C14.0627 52.2373 13.2946 51.4316 13.2946 50.4111ZM22.035 53.0376C23.6785 53.0376 24.8494 52.1138 24.8494 50.814V50.8032C24.8494 49.8472 24.178 49.0523 23.1844 48.8213V48.7998C24.033 48.5366 24.5701 47.8921 24.5701 47.0757V47.0649C24.5701 45.8941 23.5013 45.0293 22.035 45.0293C20.5686 45.0293 19.4998 45.8941 19.4998 47.0649V47.0757C19.4998 47.8921 20.0369 48.5366 20.8855 48.7998V48.8213C19.8919 49.0523 19.2205 49.8472 19.2205 50.8032V50.814C19.2205 52.1138 20.3914 53.0376 22.035 53.0376ZM22.035 48.4399C21.1004 48.4399 20.4612 47.9082 20.4612 47.1563V47.1455C20.4612 46.3936 21.1004 45.8618 22.035 45.8618C22.9695 45.8618 23.6087 46.3936 23.6087 47.1455V47.1563C23.6087 47.9082 22.9695 48.4399 22.035 48.4399ZM22.035 52.1943C20.9661 52.1943 20.2034 51.5928 20.2034 50.7549V50.7441C20.2034 49.8955 20.9607 49.2886 22.035 49.2886C23.1092 49.2886 23.8665 49.8955 23.8665 50.7441V50.7549C23.8665 51.5928 23.1038 52.1943 22.035 52.1943Z" fill="url(#paint1_linear_1404_15958)" fill-opacity="0.35"/>
<g style="mix-blend-mode:overlay">
<path d="M33.965 53.0376C35.6086 53.0376 36.7795 52.1138 36.7795 50.814V50.8032C36.7795 49.8472 36.1081 49.0523 35.1145 48.8213V48.7998C35.9631 48.5366 36.5002 47.8921 36.5002 47.0757V47.0649C36.5002 45.8941 35.4314 45.0293 33.965 45.0293C32.4987 45.0293 31.4299 45.8941 31.4299 47.0649V47.0757C31.4299 47.8921 31.967 48.5366 32.8156 48.7998V48.8213C31.822 49.0523 31.1506 49.8472 31.1506 50.8032V50.814C31.1506 52.1138 32.3215 53.0376 33.965 53.0376ZM33.965 48.4399C33.0305 48.4399 32.3913 47.9082 32.3913 47.1563V47.1455C32.3913 46.3936 33.0305 45.8618 33.965 45.8618C34.8996 45.8618 35.5388 46.3936 35.5388 47.1455V47.1563C35.5388 47.9082 34.8996 48.4399 33.965 48.4399ZM33.965 52.1943C32.8962 52.1943 32.1335 51.5928 32.1335 50.7549V50.7441C32.1335 49.8955 32.8908 49.2886 33.965 49.2886C35.0393 49.2886 35.7966 49.8955 35.7966 50.7441V50.7549C35.7966 51.5928 35.0339 52.1943 33.965 52.1943ZM41.1477 53.0913C42.7107 53.0913 43.8601 51.9688 43.8601 50.4219V50.4111C43.8601 48.9233 42.7752 47.8169 41.3196 47.8169C40.2723 47.8169 39.5418 48.3809 39.2571 49.0147H39.1551C39.1551 48.9556 39.1551 48.8911 39.1604 48.832C39.2195 47.2153 39.7942 45.8403 41.2015 45.8403C41.9856 45.8403 42.5281 46.2432 42.7644 46.8931L42.7859 46.9522H43.7581L43.742 46.8823C43.4788 45.7383 42.512 44.9756 41.2122 44.9756C39.3323 44.9756 38.2312 46.5225 38.2312 49.165V49.1758C38.2312 52.0923 39.7298 53.0913 41.1477 53.0913ZM39.386 50.4111V50.4058C39.386 49.396 40.1487 48.6602 41.1531 48.6602C42.1575 48.6602 42.888 49.4014 42.888 50.4326V50.4434C42.888 51.4478 42.1092 52.2373 41.137 52.2373C40.1541 52.2373 39.386 51.4316 39.386 50.4111Z" fill="white"/>
</g>
<g style="mix-blend-mode:soft-light">
<path d="M33.965 53.0376C35.6086 53.0376 36.7795 52.1138 36.7795 50.814V50.8032C36.7795 49.8472 36.1081 49.0523 35.1145 48.8213V48.7998C35.9631 48.5366 36.5002 47.8921 36.5002 47.0757V47.0649C36.5002 45.8941 35.4314 45.0293 33.965 45.0293C32.4987 45.0293 31.4299 45.8941 31.4299 47.0649V47.0757C31.4299 47.8921 31.967 48.5366 32.8156 48.7998V48.8213C31.822 49.0523 31.1506 49.8472 31.1506 50.8032V50.814C31.1506 52.1138 32.3215 53.0376 33.965 53.0376ZM33.965 48.4399C33.0305 48.4399 32.3913 47.9082 32.3913 47.1563V47.1455C32.3913 46.3936 33.0305 45.8618 33.965 45.8618C34.8996 45.8618 35.5388 46.3936 35.5388 47.1455V47.1563C35.5388 47.9082 34.8996 48.4399 33.965 48.4399ZM33.965 52.1943C32.8962 52.1943 32.1335 51.5928 32.1335 50.7549V50.7441C32.1335 49.8955 32.8908 49.2886 33.965 49.2886C35.0393 49.2886 35.7966 49.8955 35.7966 50.7441V50.7549C35.7966 51.5928 35.0339 52.1943 33.965 52.1943ZM41.1477 53.0913C42.7107 53.0913 43.8601 51.9688 43.8601 50.4219V50.4111C43.8601 48.9233 42.7752 47.8169 41.3196 47.8169C40.2723 47.8169 39.5418 48.3809 39.2571 49.0147H39.1551C39.1551 48.9556 39.1551 48.8911 39.1604 48.832C39.2195 47.2153 39.7942 45.8403 41.2015 45.8403C41.9856 45.8403 42.5281 46.2432 42.7644 46.8931L42.7859 46.9522H43.7581L43.742 46.8823C43.4788 45.7383 42.512 44.9756 41.2122 44.9756C39.3323 44.9756 38.2312 46.5225 38.2312 49.165V49.1758C38.2312 52.0923 39.7298 53.0913 41.1477 53.0913ZM39.386 50.4111V50.4058C39.386 49.396 40.1487 48.6602 41.1531 48.6602C42.1575 48.6602 42.888 49.4014 42.888 50.4326V50.4434C42.888 51.4478 42.1092 52.2373 41.137 52.2373C40.1541 52.2373 39.386 51.4316 39.386 50.4111Z" fill="white" fill-opacity="0.35"/>
</g>
<path style="mix-blend-mode:overlay" d="M33.965 53.0376C35.6086 53.0376 36.7795 52.1138 36.7795 50.814V50.8032C36.7795 49.8472 36.1081 49.0523 35.1145 48.8213V48.7998C35.9631 48.5366 36.5002 47.8921 36.5002 47.0757V47.0649C36.5002 45.8941 35.4314 45.0293 33.965 45.0293C32.4987 45.0293 31.4299 45.8941 31.4299 47.0649V47.0757C31.4299 47.8921 31.967 48.5366 32.8156 48.7998V48.8213C31.822 49.0523 31.1506 49.8472 31.1506 50.8032V50.814C31.1506 52.1138 32.3215 53.0376 33.965 53.0376ZM33.965 48.4399C33.0305 48.4399 32.3913 47.9082 32.3913 47.1563V47.1455C32.3913 46.3936 33.0305 45.8618 33.965 45.8618C34.8996 45.8618 35.5388 46.3936 35.5388 47.1455V47.1563C35.5388 47.9082 34.8996 48.4399 33.965 48.4399ZM33.965 52.1943C32.8962 52.1943 32.1335 51.5928 32.1335 50.7549V50.7441C32.1335 49.8955 32.8908 49.2886 33.965 49.2886C35.0393 49.2886 35.7966 49.8955 35.7966 50.7441V50.7549C35.7966 51.5928 35.0339 52.1943 33.965 52.1943ZM41.1477 53.0913C42.7107 53.0913 43.8601 51.9688 43.8601 50.4219V50.4111C43.8601 48.9233 42.7752 47.8169 41.3196 47.8169C40.2723 47.8169 39.5418 48.3809 39.2571 49.0147H39.1551C39.1551 48.9556 39.1551 48.8911 39.1604 48.832C39.2195 47.2153 39.7942 45.8403 41.2015 45.8403C41.9856 45.8403 42.5281 46.2432 42.7644 46.8931L42.7859 46.9522H43.7581L43.742 46.8823C43.4788 45.7383 42.512 44.9756 41.2122 44.9756C39.3323 44.9756 38.2312 46.5225 38.2312 49.165V49.1758C38.2312 52.0923 39.7298 53.0913 41.1477 53.0913ZM39.386 50.4111V50.4058C39.386 49.396 40.1487 48.6602 41.1531 48.6602C42.1575 48.6602 42.888 49.4014 42.888 50.4326V50.4434C42.888 51.4478 42.1092 52.2373 41.137 52.2373C40.1541 52.2373 39.386 51.4316 39.386 50.4111Z" fill="url(#paint2_linear_1404_15958)" fill-opacity="0.35"/>
<g style="mix-blend-mode:overlay">
<path d="M16.8024 38.9087H19.0172L26.5407 23.9556V21.9985H15.3492V23.8735H24.4547V23.9204L16.8024 38.9087ZM29.3187 38.9087H40.475V37.0337H32.2133V36.9868L36.2328 32.8618C39.3383 29.686 40.1937 28.2915 40.1937 26.4399V26.4165C40.1937 23.7681 37.9554 21.7173 34.8968 21.7173C31.7445 21.7173 29.2133 23.8853 29.2133 26.8149V26.8853H31.2523V26.8267C31.2523 25.0103 32.8226 23.5571 34.932 23.5571C36.7718 23.5571 38.0726 24.7993 38.0843 26.522V26.5454C38.0843 27.9517 37.557 28.8657 35.2718 31.2446L29.3187 37.4556V38.9087Z" fill="white"/>
</g>
<g style="mix-blend-mode:soft-light">
<path d="M16.8024 38.9087H19.0172L26.5407 23.9556V21.9985H15.3492V23.8735H24.4547V23.9204L16.8024 38.9087ZM29.3187 38.9087H40.475V37.0337H32.2133V36.9868L36.2328 32.8618C39.3383 29.686 40.1937 28.2915 40.1937 26.4399V26.4165C40.1937 23.7681 37.9554 21.7173 34.8968 21.7173C31.7445 21.7173 29.2133 23.8853 29.2133 26.8149V26.8853H31.2523V26.8267C31.2523 25.0103 32.8226 23.5571 34.932 23.5571C36.7718 23.5571 38.0726 24.7993 38.0843 26.522V26.5454C38.0843 27.9517 37.557 28.8657 35.2718 31.2446L29.3187 37.4556V38.9087Z" fill="white" fill-opacity="0.35"/>
</g>
<path style="mix-blend-mode:overlay" d="M16.8024 38.9087H19.0172L26.5407 23.9556V21.9985H15.3492V23.8735H24.4547V23.9204L16.8024 38.9087ZM29.3187 38.9087H40.475V37.0337H32.2133V36.9868L36.2328 32.8618C39.3383 29.686 40.1937 28.2915 40.1937 26.4399V26.4165C40.1937 23.7681 37.9554 21.7173 34.8968 21.7173C31.7445 21.7173 29.2133 23.8853 29.2133 26.8149V26.8853H31.2523V26.8267C31.2523 25.0103 32.8226 23.5571 34.932 23.5571C36.7718 23.5571 38.0726 24.7993 38.0843 26.522V26.5454C38.0843 27.9517 37.557 28.8657 35.2718 31.2446L29.3187 37.4556V38.9087Z" fill="url(#paint3_linear_1404_15958)" fill-opacity="0.35"/>
<g style="mix-blend-mode:overlay">
<path d="M16.5 11.9087C18.433 11.9087 20 10.3417 20 8.40869C20 6.47569 18.433 4.90869 16.5 4.90869C14.567 4.90869 13 6.47569 13 8.40869C13 10.3417 14.567 11.9087 16.5 11.9087Z" fill="white"/>
</g>
<g style="mix-blend-mode:soft-light">
<path d="M16.5 11.9087C18.433 11.9087 20 10.3417 20 8.40869C20 6.47569 18.433 4.90869 16.5 4.90869C14.567 4.90869 13 6.47569 13 8.40869C13 10.3417 14.567 11.9087 16.5 11.9087Z" fill="white" fill-opacity="0.35"/>
</g>
<path style="mix-blend-mode:overlay" d="M16.5 11.9087C18.433 11.9087 20 10.3417 20 8.40869C20 6.47569 18.433 4.90869 16.5 4.90869C14.567 4.90869 13 6.47569 13 8.40869C13 10.3417 14.567 11.9087 16.5 11.9087Z" fill="url(#paint4_linear_1404_15958)" fill-opacity="0.35"/>
<g opacity="0.2">
<g style="mix-blend-mode:overlay">
<path d="M144 28C144 43.464 131.464 56 116 56C100.536 56 88 43.464 88 28C88 12.536 100.536 0 116 0C131.464 0 144 12.536 144 28ZM93.6 28C93.6 40.3712 103.629 50.4 116 50.4C128.371 50.4 138.4 40.3712 138.4 28C138.4 15.6288 128.371 5.6 116 5.6C103.629 5.6 93.6 15.6288 93.6 28Z" fill="white"/>
</g>
<g style="mix-blend-mode:soft-light">
<path d="M144 28C144 43.464 131.464 56 116 56C100.536 56 88 43.464 88 28C88 12.536 100.536 0 116 0C131.464 0 144 12.536 144 28ZM93.6 28C93.6 40.3712 103.629 50.4 116 50.4C128.371 50.4 138.4 40.3712 138.4 28C138.4 15.6288 128.371 5.6 116 5.6C103.629 5.6 93.6 15.6288 93.6 28Z" fill="white" fill-opacity="0.35"/>
</g>
<path style="mix-blend-mode:overlay" d="M144 28C144 43.464 131.464 56 116 56C100.536 56 88 43.464 88 28C88 12.536 100.536 0 116 0C131.464 0 144 12.536 144 28ZM93.6 28C93.6 40.3712 103.629 50.4 116 50.4C128.371 50.4 138.4 40.3712 138.4 28C138.4 15.6288 128.371 5.6 116 5.6C103.629 5.6 93.6 15.6288 93.6 28Z" fill="url(#paint5_linear_1404_15958)" fill-opacity="0.35"/>
</g>
<g opacity="0.2">
<g style="mix-blend-mode:overlay">
<path d="M136 28C136 39.0457 127.046 48 116 48C104.954 48 96 39.0457 96 28C96 16.9543 104.954 8 116 8C127.046 8 136 16.9543 136 28ZM102 28C102 35.732 108.268 42 116 42C123.732 42 130 35.732 130 28C130 20.268 123.732 14 116 14C108.268 14 102 20.268 102 28Z" fill="white"/>
</g>
<g style="mix-blend-mode:soft-light">
<path d="M136 28C136 39.0457 127.046 48 116 48C104.954 48 96 39.0457 96 28C96 16.9543 104.954 8 116 8C127.046 8 136 16.9543 136 28ZM102 28C102 35.732 108.268 42 116 42C123.732 42 130 35.732 130 28C130 20.268 123.732 14 116 14C108.268 14 102 20.268 102 28Z" fill="white" fill-opacity="0.35"/>
</g>
<path style="mix-blend-mode:overlay" d="M136 28C136 39.0457 127.046 48 116 48C104.954 48 96 39.0457 96 28C96 16.9543 104.954 8 116 8C127.046 8 136 16.9543 136 28ZM102 28C102 35.732 108.268 42 116 42C123.732 42 130 35.732 130 28C130 20.268 123.732 14 116 14C108.268 14 102 20.268 102 28Z" fill="url(#paint6_linear_1404_15958)" fill-opacity="0.35"/>
</g>
<g opacity="0.2">
<g style="mix-blend-mode:overlay">
<path d="M128 28C128 34.6274 122.627 40 116 40C109.373 40 104 34.6274 104 28C104 21.3726 109.373 16 116 16C122.627 16 128 21.3726 128 28ZM110 28C110 31.3137 112.686 34 116 34C119.314 34 122 31.3137 122 28C122 24.6863 119.314 22 116 22C112.686 22 110 24.6863 110 28Z" fill="white"/>
</g>
<g style="mix-blend-mode:soft-light">
<path d="M128 28C128 34.6274 122.627 40 116 40C109.373 40 104 34.6274 104 28C104 21.3726 109.373 16 116 16C122.627 16 128 21.3726 128 28ZM110 28C110 31.3137 112.686 34 116 34C119.314 34 122 31.3137 122 28C122 24.6863 119.314 22 116 22C112.686 22 110 24.6863 110 28Z" fill="white" fill-opacity="0.35"/>
</g>
<path style="mix-blend-mode:overlay" d="M128 28C128 34.6274 122.627 40 116 40C109.373 40 104 34.6274 104 28C104 21.3726 109.373 16 116 16C122.627 16 128 21.3726 128 28ZM110 28C110 31.3137 112.686 34 116 34C119.314 34 122 31.3137 122 28C122 24.6863 119.314 22 116 22C112.686 22 110 24.6863 110 28Z" fill="url(#paint7_linear_1404_15958)" fill-opacity="0.35"/>
</g>
<defs>
<linearGradient id="paint0_linear_1404_15958" x1="18.3716" y1="37.5518" x2="18.3716" y2="17.1306" gradientUnits="userSpaceOnUse">
<stop stop-color="white"/>
<stop offset="1" stop-color="white" stop-opacity="0"/>
</linearGradient>
<linearGradient id="paint1_linear_1404_15958" x1="15.9209" y1="53.2869" x2="15.9209" y2="47.1692" gradientUnits="userSpaceOnUse">
<stop stop-color="white"/>
<stop offset="1" stop-color="white" stop-opacity="0"/>
</linearGradient>
<linearGradient id="paint2_linear_1404_15958" x1="34.9209" y1="53.2869" x2="34.9209" y2="47.1692" gradientUnits="userSpaceOnUse">
<stop stop-color="white"/>
<stop offset="1" stop-color="white" stop-opacity="0"/>
</linearGradient>
<linearGradient id="paint3_linear_1404_15958" x1="23.1858" y1="40.0516" x2="23.1858" y2="24.0516" gradientUnits="userSpaceOnUse">
<stop stop-color="white"/>
<stop offset="1" stop-color="white" stop-opacity="0"/>
</linearGradient>
<linearGradient id="paint4_linear_1404_15958" x1="15.2964" y1="10.4969" x2="15.2964" y2="7.20281" gradientUnits="userSpaceOnUse">
<stop stop-color="white"/>
<stop offset="1" stop-color="white" stop-opacity="0"/>
</linearGradient>
<linearGradient id="paint5_linear_1404_15958" x1="106.372" y1="44.7059" x2="106.372" y2="18.3529" gradientUnits="userSpaceOnUse">
<stop stop-color="white"/>
<stop offset="1" stop-color="white" stop-opacity="0"/>
</linearGradient>
<linearGradient id="paint6_linear_1404_15958" x1="109.123" y1="39.9328" x2="109.123" y2="21.1092" gradientUnits="userSpaceOnUse">
<stop stop-color="white"/>
<stop offset="1" stop-color="white" stop-opacity="0"/>
</linearGradient>
<linearGradient id="paint7_linear_1404_15958" x1="111.874" y1="35.1597" x2="111.874" y2="23.8655" gradientUnits="userSpaceOnUse">
<stop stop-color="white"/>
<stop offset="1" stop-color="white" stop-opacity="0"/>
</linearGradient>
</defs>
</svg>
