<svg width="308" height="59" viewBox="0 0 308 59" fill="none" xmlns="http://www.w3.org/2000/svg">
<line x1="2" y1="4" x2="2" y2="56" stroke="white" stroke-width="4" stroke-linecap="round"/>
<path d="M16.0283 15H17.918V4.43115H16.0356L13.2744 6.37207V8.15186L15.9038 6.2915H16.0283V15ZM24.2295 15.2637C26.7417 15.2637 28.2651 13.1323 28.2651 9.71924V9.70459C28.2651 6.2915 26.7417 4.16748 24.2295 4.16748C21.7173 4.16748 20.2085 6.2915 20.2085 9.70459V9.71924C20.2085 13.1323 21.7173 15.2637 24.2295 15.2637ZM24.2295 13.7329C22.8818 13.7329 22.1128 12.2241 22.1128 9.71924V9.70459C22.1128 7.19971 22.8818 5.70557 24.2295 5.70557C25.5771 5.70557 26.3608 7.19971 26.3608 9.70459V9.71924C26.3608 12.2241 25.5771 13.7329 24.2295 13.7329ZM31.1196 8.15186C31.7935 8.15186 32.2842 7.63916 32.2842 6.99463C32.2842 6.34277 31.7935 5.8374 31.1196 5.8374C30.4531 5.8374 29.9551 6.34277 29.9551 6.99463C29.9551 7.63916 30.4531 8.15186 31.1196 8.15186ZM31.1196 13.5864C31.7935 13.5864 32.2842 13.0811 32.2842 12.4292C32.2842 11.7773 31.7935 11.272 31.1196 11.272C30.4531 11.272 29.9551 11.7773 29.9551 12.4292C29.9551 13.0811 30.4531 13.5864 31.1196 13.5864ZM37.9951 15.2637C40.5073 15.2637 42.0308 13.1323 42.0308 9.71924V9.70459C42.0308 6.2915 40.5073 4.16748 37.9951 4.16748C35.4829 4.16748 33.9741 6.2915 33.9741 9.70459V9.71924C33.9741 13.1323 35.4829 15.2637 37.9951 15.2637ZM37.9951 13.7329C36.6475 13.7329 35.8784 12.2241 35.8784 9.71924V9.70459C35.8784 7.19971 36.6475 5.70557 37.9951 5.70557C39.3428 5.70557 40.1265 7.19971 40.1265 9.70459V9.71924C40.1265 12.2241 39.3428 13.7329 37.9951 13.7329ZM47.4707 15.2637C49.9829 15.2637 51.5063 13.1323 51.5063 9.71924V9.70459C51.5063 6.2915 49.9829 4.16748 47.4707 4.16748C44.9585 4.16748 43.4497 6.2915 43.4497 9.70459V9.71924C43.4497 13.1323 44.9585 15.2637 47.4707 15.2637ZM47.4707 13.7329C46.123 13.7329 45.354 12.2241 45.354 9.71924V9.70459C45.354 7.19971 46.123 5.70557 47.4707 5.70557C48.8184 5.70557 49.6021 7.19971 49.6021 9.70459V9.71924C49.6021 12.2241 48.8184 13.7329 47.4707 13.7329ZM56.0215 10.5396H64.0781V8.88428H56.0215V10.5396ZM71.3252 15H73.2148V4.43115H71.3325L68.5713 6.37207V8.15186L71.2007 6.2915H71.3252V15ZM78.2373 15H80.127V4.43115H78.2446L75.4834 6.37207V8.15186L78.1128 6.2915H78.2373V15ZM83.9263 8.15186C84.6001 8.15186 85.0908 7.63916 85.0908 6.99463C85.0908 6.34277 84.6001 5.8374 83.9263 5.8374C83.2598 5.8374 82.7617 6.34277 82.7617 6.99463C82.7617 7.63916 83.2598 8.15186 83.9263 8.15186ZM83.9263 13.5864C84.6001 13.5864 85.0908 13.0811 85.0908 12.4292C85.0908 11.7773 84.6001 11.272 83.9263 11.272C83.2598 11.272 82.7617 11.7773 82.7617 12.4292C82.7617 13.0811 83.2598 13.5864 83.9263 13.5864ZM90.7651 15.2124C93.1089 15.2124 94.7129 13.916 94.7129 12.0557V12.041C94.7129 10.5762 93.6802 9.65332 92.1274 9.50684V9.47021C93.3945 9.20654 94.3394 8.33496 94.3394 7.02393V7.00928C94.3394 5.354 92.9258 4.21875 90.7505 4.21875C88.6191 4.21875 87.1763 5.41992 87.0151 7.25098L87.0078 7.33154H88.7656L88.7729 7.2583C88.8682 6.31348 89.6372 5.72021 90.7505 5.72021C91.8784 5.72021 92.5303 6.2915 92.5303 7.2583V7.27295C92.5303 8.1958 91.7539 8.85498 90.5894 8.85498H89.3809V10.2612H90.626C91.981 10.2612 92.8013 10.8765 92.8013 11.9897V12.0044C92.8013 12.9858 91.9883 13.667 90.7651 13.667C89.5273 13.667 88.6997 13.0298 88.5972 12.1362L88.5898 12.0557H86.7881L86.7954 12.1436C86.9346 13.9526 88.4507 15.2124 90.7651 15.2124ZM100.087 15.2637C102.599 15.2637 104.123 13.1323 104.123 9.71924V9.70459C104.123 6.2915 102.599 4.16748 100.087 4.16748C97.5747 4.16748 96.0659 6.2915 96.0659 9.70459V9.71924C96.0659 13.1323 97.5747 15.2637 100.087 15.2637ZM100.087 13.7329C98.7393 13.7329 97.9702 12.2241 97.9702 9.71924V9.70459C97.9702 7.19971 98.7393 5.70557 100.087 5.70557C101.435 5.70557 102.218 7.19971 102.218 9.70459V9.71924C102.218 12.2241 101.435 13.7329 100.087 13.7329ZM108.601 15H110.579L111.458 12.2681H115.369L116.255 15H118.232L114.482 4.43115H112.351L108.601 15ZM113.354 6.39404H113.479L114.9 10.8105H111.934L113.354 6.39404ZM119.549 15H121.255V7.48535H121.38L124.31 15H125.599L128.528 7.48535H128.66V15H130.359V4.43115H128.191L125.02 12.561H124.896L121.717 4.43115H119.549V15Z" fill="white"/>
<path d="M13.7032 36H17.8267C20.0753 36 21.4083 34.894 21.4083 33.041V33.0264C21.4083 31.6348 20.4927 30.646 19.0499 30.4629V30.3457C20.0679 30.1626 20.8736 29.1665 20.8736 28.0752V28.0605C20.8736 26.4492 19.6871 25.4312 17.7462 25.4312H13.7032V36ZM17.4678 26.5957C18.7789 26.5957 19.5406 27.2183 19.5406 28.2876V28.3022C19.5406 29.4155 18.7276 29.9868 17.1309 29.9868H15.0215V26.5957H17.4678ZM17.5045 31.1221C19.189 31.1221 20.0533 31.7446 20.0533 32.9604V32.9751C20.0533 34.1909 19.2183 34.8354 17.629 34.8354H15.0215V31.1221H17.5045ZM26.4051 36.1392C28.6536 36.1392 30.0452 34.5864 30.0452 32.0596V32.0449C30.0452 29.5107 28.6536 27.9653 26.4051 27.9653C24.1565 27.9653 22.7649 29.5107 22.7649 32.0449V32.0596C22.7649 34.5864 24.1565 36.1392 26.4051 36.1392ZM26.4051 35.0112C24.9109 35.0112 24.0687 33.9199 24.0687 32.0596V32.0449C24.0687 30.1772 24.9109 29.0933 26.4051 29.0933C27.8992 29.0933 28.7415 30.1772 28.7415 32.0449V32.0596C28.7415 33.9199 27.8992 35.0112 26.4051 35.0112ZM33.9507 36.1392C35.0127 36.1392 35.8404 35.6777 36.3384 34.8354H36.4556V36H37.73V30.5947C37.73 28.9541 36.6534 27.9653 34.7271 27.9653C33.0425 27.9653 31.8413 28.8003 31.6363 30.0381L31.6289 30.082H32.9034L32.9107 30.0601C33.1158 29.4448 33.7383 29.0933 34.6831 29.0933C35.8623 29.0933 36.4556 29.6206 36.4556 30.5947V31.3125L34.1924 31.4517C32.354 31.5615 31.314 32.3745 31.314 33.7808V33.7954C31.314 35.231 32.4493 36.1392 33.9507 36.1392ZM32.6177 33.7661V33.7515C32.6177 32.9678 33.1451 32.543 34.3462 32.4697L36.4556 32.3379V33.0557C36.4556 34.1836 35.5108 35.0332 34.2144 35.0332C33.2989 35.0332 32.6177 34.5645 32.6177 33.7661ZM39.8191 36H41.0935V31.1074C41.0935 29.9502 41.9578 29.1812 43.1736 29.1812C43.4519 29.1812 43.6936 29.2104 43.9573 29.2544V28.0166C43.8328 27.9946 43.5618 27.9653 43.3201 27.9653C42.2508 27.9653 41.511 28.4487 41.2107 29.2764H41.0935V28.1045H39.8191V36ZM47.9873 36.1392C49.086 36.1392 49.9649 35.6191 50.4483 34.7402H50.5654V36H51.8399V24.9697H50.5654V29.3496H50.4483C50.0161 28.5073 49.0713 27.9653 47.9873 27.9653C45.9805 27.9653 44.6768 29.5693 44.6768 32.0449V32.0596C44.6768 34.5205 45.9878 36.1392 47.9873 36.1392ZM48.2803 35.0112C46.8374 35.0112 45.9805 33.8979 45.9805 32.0596V32.0449C45.9805 30.2065 46.8374 29.0933 48.2803 29.0933C49.7158 29.0933 50.5947 30.2212 50.5947 32.0449V32.0596C50.5947 33.8833 49.7158 35.0112 48.2803 35.0112ZM58.0249 36H59.2993V31.1074C59.2993 29.9941 60.083 29.0933 61.1157 29.0933C62.1118 29.0933 62.7563 29.7012 62.7563 30.6387V36H64.0308V30.9243C64.0308 29.9209 64.7559 29.0933 65.8545 29.0933C66.9678 29.0933 67.5024 29.6719 67.5024 30.8364V36H68.7769V30.5435C68.7769 28.8882 67.876 27.9653 66.2646 27.9653C65.1733 27.9653 64.2725 28.5146 63.8477 29.3496H63.7305C63.3643 28.5293 62.6172 27.9653 61.5479 27.9653C60.5151 27.9653 59.7681 28.4561 59.4165 29.3057H59.2993V28.1045H58.0249V36ZM74.0593 36.1392C75.9197 36.1392 77.0476 35.0845 77.3186 34.0151L77.3332 33.9565H76.0588L76.0295 34.0225C75.8171 34.4985 75.1579 35.0039 74.0886 35.0039C72.6824 35.0039 71.7815 34.0518 71.7449 32.4185H77.4285V31.9204C77.4285 29.562 76.1247 27.9653 73.9787 27.9653C71.8328 27.9653 70.4412 29.6353 70.4412 32.0742V32.0815C70.4412 34.5571 71.8035 36.1392 74.0593 36.1392ZM73.9714 29.1006C75.136 29.1006 76.0002 29.8403 76.1321 31.4004H71.7668C71.906 29.8989 72.7995 29.1006 73.9714 29.1006ZM82.3887 36.1392C84.249 36.1392 85.3769 35.0845 85.6479 34.0151L85.6626 33.9565H84.3882L84.3589 34.0225C84.1465 34.4985 83.4873 35.0039 82.418 35.0039C81.0117 35.0039 80.1108 34.0518 80.0742 32.4185H85.7578V31.9204C85.7578 29.562 84.4541 27.9653 82.3081 27.9653C80.1621 27.9653 78.7705 29.6353 78.7705 32.0742V32.0815C78.7705 34.5571 80.1328 36.1392 82.3887 36.1392ZM82.3008 29.1006C83.4653 29.1006 84.3296 29.8403 84.4614 31.4004H80.0962C80.2353 29.8989 81.1289 29.1006 82.3008 29.1006ZM90.3005 36.0586C90.5495 36.0586 90.7912 36.0293 91.0403 35.9854V34.9014C90.8059 34.9233 90.6814 34.9307 90.4543 34.9307C89.634 34.9307 89.3117 34.5571 89.3117 33.627V29.1592H91.0403V28.1045H89.3117V26.061H87.9934V28.1045H86.7483V29.1592H87.9934V33.9492C87.9934 35.458 88.6745 36.0586 90.3005 36.0586ZM93.3784 26.5811C93.8618 26.5811 94.2573 26.1855 94.2573 25.7021C94.2573 25.2188 93.8618 24.8232 93.3784 24.8232C92.895 24.8232 92.4995 25.2188 92.4995 25.7021C92.4995 26.1855 92.895 26.5811 93.3784 26.5811ZM92.7338 36H94.0083V28.1045H92.7338V36ZM96.1706 36H97.445V31.3271C97.445 29.9429 98.2434 29.0933 99.5031 29.0933C100.763 29.0933 101.349 29.7744 101.349 31.1953V36H102.623V30.8877C102.623 29.0127 101.634 27.9653 99.862 27.9653C98.6975 27.9653 97.9577 28.4561 97.5622 29.291H97.445V28.1045H96.1706V36ZM107.942 38.7832C110.096 38.7832 111.458 37.6553 111.458 35.8901V28.1045H110.184V29.4082H110.096C109.612 28.5146 108.748 27.9653 107.635 27.9653C105.569 27.9653 104.295 29.5693 104.295 31.7812V31.7959C104.295 34.0078 105.562 35.5898 107.605 35.5898C108.689 35.5898 109.583 35.0991 110.081 34.2275H110.198V35.8242C110.198 36.9888 109.356 37.6553 107.942 37.6553C106.807 37.6553 106.104 37.2305 105.965 36.6299L105.957 36.6226H104.639L104.624 36.6299C104.822 37.9263 106.038 38.7832 107.942 38.7832ZM107.884 34.4619C106.419 34.4619 105.599 33.3633 105.599 31.7959V31.7812C105.599 30.2139 106.419 29.0933 107.884 29.0933C109.341 29.0933 110.227 30.2139 110.227 31.7812V31.7959C110.227 33.3633 109.349 34.4619 107.884 34.4619Z" fill="white"/>
<path d="M17.6331 54.249C19.8817 54.249 21.5516 52.9966 21.9031 51.063V51.0483H20.5701L20.5555 51.063C20.2259 52.2788 19.1053 53.0332 17.6331 53.0332C15.597 53.0332 14.3226 51.3706 14.3226 48.7266V48.7119C14.3226 46.0679 15.597 44.3979 17.6258 44.3979C19.0833 44.3979 20.2113 45.2549 20.5628 46.6099L20.5701 46.6245H21.8958L21.9031 46.6099C21.5882 44.5811 19.8524 43.1821 17.6258 43.1821C14.7547 43.1821 12.9676 45.3062 12.9676 48.7119V48.7266C12.9676 52.125 14.762 54.249 17.6331 54.249ZM26.9586 54.1392C29.2071 54.1392 30.5987 52.5864 30.5987 50.0596V50.0449C30.5987 47.5107 29.2071 45.9653 26.9586 45.9653C24.71 45.9653 23.3184 47.5107 23.3184 50.0449V50.0596C23.3184 52.5864 24.71 54.1392 26.9586 54.1392ZM26.9586 53.0112C25.4644 53.0112 24.6221 51.9199 24.6221 50.0596V50.0449C24.6221 48.1772 25.4644 47.0933 26.9586 47.0933C28.4527 47.0933 29.295 48.1772 29.295 50.0449V50.0596C29.295 51.9199 28.4527 53.0112 26.9586 53.0112ZM32.3362 54H33.6106V49.3271C33.6106 47.9429 34.409 47.0933 35.6688 47.0933C36.9285 47.0933 37.5145 47.7744 37.5145 49.1953V54H38.7889V48.8877C38.7889 47.0127 37.8001 45.9653 36.0276 45.9653C34.8631 45.9653 34.1233 46.4561 33.7278 47.291H33.6106V46.1045H32.3362V54ZM41.3833 54H42.6578V47.1592H44.4522V46.1045H42.6578V45.2622C42.6578 44.3979 43.024 43.9512 43.9322 43.9512C44.1592 43.9512 44.3716 43.9585 44.5254 43.9878V42.9697C44.2618 42.9185 43.9834 42.8965 43.6758 42.8965C42.1744 42.8965 41.3833 43.6509 41.3833 45.2256V46.1045H40.0723V47.1592H41.3833V54ZM48.9363 54.1392C50.7967 54.1392 51.9246 53.0845 52.1956 52.0151L52.2102 51.9565H50.9358L50.9065 52.0225C50.6941 52.4985 50.0349 53.0039 48.9656 53.0039C47.5594 53.0039 46.6585 52.0518 46.6219 50.4185H52.3055V49.9204C52.3055 47.562 51.0017 45.9653 48.8557 45.9653C46.7097 45.9653 45.3181 47.6353 45.3181 50.0742V50.0815C45.3181 52.5571 46.6805 54.1392 48.9363 54.1392ZM48.8484 47.1006C50.013 47.1006 50.8772 47.8403 51.0091 49.4004H46.6438C46.783 47.8989 47.6765 47.1006 48.8484 47.1006ZM54.043 54H55.3174V49.1074C55.3174 47.9502 56.1817 47.1812 57.3975 47.1812C57.6758 47.1812 57.9175 47.2104 58.1812 47.2544V46.0166C58.0567 45.9946 57.7857 45.9653 57.544 45.9653C56.4746 45.9653 55.7349 46.4487 55.4346 47.2764H55.3174V46.1045H54.043V54ZM62.5188 54.1392C64.3792 54.1392 65.5071 53.0845 65.7781 52.0151L65.7927 51.9565H64.5183L64.489 52.0225C64.2766 52.4985 63.6174 53.0039 62.5481 53.0039C61.1419 53.0039 60.241 52.0518 60.2044 50.4185H65.888V49.9204C65.888 47.562 64.5842 45.9653 62.4382 45.9653C60.2922 45.9653 58.9006 47.6353 58.9006 50.0742V50.0815C58.9006 52.5571 60.263 54.1392 62.5188 54.1392ZM62.4309 47.1006C63.5955 47.1006 64.4597 47.8403 64.5916 49.4004H60.2263C60.3655 47.8989 61.259 47.1006 62.4309 47.1006ZM67.6255 54H68.8999V49.3271C68.8999 47.9429 69.6982 47.0933 70.958 47.0933C72.2178 47.0933 72.8037 47.7744 72.8037 49.1953V54H74.0781V48.8877C74.0781 47.0127 73.0894 45.9653 71.3169 45.9653C70.1523 45.9653 69.4126 46.4561 69.0171 47.291H68.8999V46.1045H67.6255V54ZM79.3752 54.1392C81.2722 54.1392 82.3342 53.1211 82.6565 51.6929L82.6711 51.6123L81.4114 51.6196L81.3967 51.6636C81.1038 52.5425 80.4299 53.0112 79.3679 53.0112C77.9617 53.0112 77.0535 51.8467 77.0535 50.0303V50.0156C77.0535 48.2358 77.947 47.0933 79.3679 47.0933C80.5032 47.0933 81.2063 47.7231 81.404 48.4995L81.4114 48.5215H82.6785L82.6711 48.4775C82.4368 47.0713 81.2869 45.9653 79.3679 45.9653C77.156 45.9653 75.7497 47.562 75.7497 50.0156V50.0303C75.7497 52.5352 77.1633 54.1392 79.3752 54.1392ZM87.5215 54.1392C89.3818 54.1392 90.5097 53.0845 90.7807 52.0151L90.7954 51.9565H89.521L89.4917 52.0225C89.2793 52.4985 88.6201 53.0039 87.5508 53.0039C86.1445 53.0039 85.2436 52.0518 85.207 50.4185H90.8906V49.9204C90.8906 47.562 89.5869 45.9653 87.4409 45.9653C85.2949 45.9653 83.9033 47.6353 83.9033 50.0742V50.0815C83.9033 52.5571 85.2656 54.1392 87.5215 54.1392ZM87.4336 47.1006C88.5981 47.1006 89.4624 47.8403 89.5942 49.4004H85.229C85.3681 47.8989 86.2617 47.1006 87.4336 47.1006ZM96.6069 54H97.8813V49.1074C97.8813 47.9502 98.7456 47.1812 99.9614 47.1812C100.24 47.1812 100.481 47.2104 100.745 47.2544V46.0166C100.621 45.9946 100.35 45.9653 100.108 45.9653C99.0385 45.9653 98.2988 46.4487 97.9985 47.2764H97.8813V46.1045H96.6069V54ZM105.105 54.1392C107.353 54.1392 108.745 52.5864 108.745 50.0596V50.0449C108.745 47.5107 107.353 45.9653 105.105 45.9653C102.856 45.9653 101.465 47.5107 101.465 50.0449V50.0596C101.465 52.5864 102.856 54.1392 105.105 54.1392ZM105.105 53.0112C103.611 53.0112 102.768 51.9199 102.768 50.0596V50.0449C102.768 48.1772 103.611 47.0933 105.105 47.0933C106.599 47.0933 107.441 48.1772 107.441 50.0449V50.0596C107.441 51.9199 106.599 53.0112 105.105 53.0112ZM113.727 54.1392C115.976 54.1392 117.367 52.5864 117.367 50.0596V50.0449C117.367 47.5107 115.976 45.9653 113.727 45.9653C111.478 45.9653 110.087 47.5107 110.087 50.0449V50.0596C110.087 52.5864 111.478 54.1392 113.727 54.1392ZM113.727 53.0112C112.233 53.0112 111.391 51.9199 111.391 50.0596V50.0449C111.391 48.1772 112.233 47.0933 113.727 47.0933C115.221 47.0933 116.063 48.1772 116.063 50.0449V50.0596C116.063 51.9199 115.221 53.0112 113.727 53.0112ZM119.105 54H120.379V49.1074C120.379 47.9941 121.163 47.0933 122.195 47.0933C123.192 47.0933 123.836 47.7012 123.836 48.6387V54H125.111V48.9243C125.111 47.9209 125.836 47.0933 126.934 47.0933C128.048 47.0933 128.582 47.6719 128.582 48.8364V54H129.857V48.5435C129.857 46.8882 128.956 45.9653 127.344 45.9653C126.253 45.9653 125.352 46.5146 124.927 47.3496H124.81C124.444 46.5293 123.697 45.9653 122.628 45.9653C121.595 45.9653 120.848 46.4561 120.496 47.3057H120.379V46.1045H119.105V54Z" fill="white"/>
<g style="mix-blend-mode:overlay">
<path fill-rule="evenodd" clip-rule="evenodd" d="M212.481 47.2942C213.679 48.1646 215.368 47.9049 216.12 46.6296C218.274 42.9761 219.576 38.8701 219.913 34.6189C220.32 29.4743 219.298 24.3171 216.958 19.717C214.619 15.1168 211.054 11.2527 206.657 8.55122C202.26 5.84979 197.201 4.41618 192.041 4.40872C189.277 4.40472 186.541 4.8099 183.919 5.60018C185.187 6.60774 186 8.16326 186 9.90869C186 10.1399 185.986 10.3677 185.958 10.5914C187.927 10.0461 189.97 9.76728 192.033 9.77026C196.205 9.77629 200.295 10.9354 203.85 13.1195C207.405 15.3037 210.288 18.4279 212.179 22.1472C214.071 25.8665 214.897 30.0362 214.568 34.1957C214.309 37.4613 213.346 40.6209 211.757 43.4614C211.034 44.7535 211.284 46.4238 212.481 47.2942ZM177.856 14.7326C176.222 13.8349 175.093 12.1307 175.005 10.1559C171.699 12.6812 168.986 15.9199 167.078 19.6448C164.726 24.2382 163.689 29.3924 164.081 34.5382C164.405 38.7904 165.696 42.9001 167.839 46.5597C168.587 47.8373 170.276 48.1019 171.476 47.2349C172.676 46.3679 172.93 44.6984 172.211 43.4042C170.63 40.5591 169.676 37.3967 169.427 34.1304C169.11 29.97 169.948 25.8027 171.851 22.0889C173.315 19.2302 175.365 16.7258 177.856 14.7326Z" fill="white"/>
</g>
<g style="mix-blend-mode:soft-light">
<path fill-rule="evenodd" clip-rule="evenodd" d="M212.481 47.2942C213.679 48.1646 215.368 47.9049 216.12 46.6296C218.274 42.9761 219.576 38.8701 219.913 34.6189C220.32 29.4743 219.298 24.3171 216.958 19.717C214.619 15.1168 211.054 11.2527 206.657 8.55122C202.26 5.84979 197.201 4.41618 192.041 4.40872C189.277 4.40472 186.541 4.8099 183.919 5.60018C185.187 6.60774 186 8.16326 186 9.90869C186 10.1399 185.986 10.3677 185.958 10.5914C187.927 10.0461 189.97 9.76728 192.033 9.77026C196.205 9.77629 200.295 10.9354 203.85 13.1195C207.405 15.3037 210.288 18.4279 212.179 22.1472C214.071 25.8665 214.897 30.0362 214.568 34.1957C214.309 37.4613 213.346 40.6209 211.757 43.4614C211.034 44.7535 211.284 46.4238 212.481 47.2942ZM177.856 14.7326C176.222 13.8349 175.093 12.1307 175.005 10.1559C171.699 12.6812 168.986 15.9199 167.078 19.6448C164.726 24.2382 163.689 29.3924 164.081 34.5382C164.405 38.7904 165.696 42.9001 167.839 46.5597C168.587 47.8373 170.276 48.1019 171.476 47.2349C172.676 46.3679 172.93 44.6984 172.211 43.4042C170.63 40.5591 169.676 37.3967 169.427 34.1304C169.11 29.97 169.948 25.8027 171.851 22.0889C173.315 19.2302 175.365 16.7258 177.856 14.7326Z" fill="white" fill-opacity="0.35"/>
</g>
<path style="mix-blend-mode:overlay" fill-rule="evenodd" clip-rule="evenodd" d="M212.481 47.2942C213.679 48.1646 215.368 47.9049 216.12 46.6296C218.274 42.9761 219.576 38.8701 219.913 34.6189C220.32 29.4743 219.298 24.3171 216.958 19.717C214.619 15.1168 211.054 11.2527 206.657 8.55122C202.26 5.84979 197.201 4.41618 192.041 4.40872C189.277 4.40472 186.541 4.8099 183.919 5.60018C185.187 6.60774 186 8.16326 186 9.90869C186 10.1399 185.986 10.3677 185.958 10.5914C187.927 10.0461 189.97 9.76728 192.033 9.77026C196.205 9.77629 200.295 10.9354 203.85 13.1195C207.405 15.3037 210.288 18.4279 212.179 22.1472C214.071 25.8665 214.897 30.0362 214.568 34.1957C214.309 37.4613 213.346 40.6209 211.757 43.4614C211.034 44.7535 211.284 46.4238 212.481 47.2942ZM177.856 14.7326C176.222 13.8349 175.093 12.1307 175.005 10.1559C171.699 12.6812 168.986 15.9199 167.078 19.6448C164.726 24.2382 163.689 29.3924 164.081 34.5382C164.405 38.7904 165.696 42.9001 167.839 46.5597C168.587 47.8373 170.276 48.1019 171.476 47.2349C172.676 46.3679 172.93 44.6984 172.211 43.4042C170.63 40.5591 169.676 37.3967 169.427 34.1304C169.11 29.97 169.948 25.8027 171.851 22.0889C173.315 19.2302 175.365 16.7258 177.856 14.7326Z" fill="url(#paint0_linear_1404_15951)" fill-opacity="0.35"/>
<g style="mix-blend-mode:overlay">
<path d="M179.056 54.5913C180.619 54.5913 181.769 53.4688 181.769 51.9219V51.9111C181.769 50.4233 180.684 49.3169 179.228 49.3169C178.181 49.3169 177.45 49.8809 177.166 50.5147H177.064C177.064 50.4556 177.064 50.3911 177.069 50.332C177.128 48.7153 177.703 47.3403 179.11 47.3403C179.894 47.3403 180.437 47.7432 180.673 48.3931L180.694 48.4522H181.667L181.651 48.3823C181.387 47.2383 180.421 46.4756 179.121 46.4756C177.241 46.4756 176.14 48.0225 176.14 50.665V50.6758C176.14 53.5923 177.638 54.5913 179.056 54.5913ZM177.295 51.9111V51.9058C177.295 50.896 178.057 50.1602 179.062 50.1602C180.066 50.1602 180.797 50.9014 180.797 51.9326V51.9434C180.797 52.9478 180.018 53.7373 179.046 53.7373C178.063 53.7373 177.295 52.9316 177.295 51.9111ZM186.035 54.5376C187.678 54.5376 188.849 53.6138 188.849 52.314V52.3032C188.849 51.3472 188.178 50.5523 187.184 50.3213V50.2998C188.033 50.0366 188.57 49.3921 188.57 48.5757V48.5649C188.57 47.3941 187.501 46.5293 186.035 46.5293C184.569 46.5293 183.5 47.3941 183.5 48.5649V48.5757C183.5 49.3921 184.037 50.0366 184.885 50.2998V50.3213C183.892 50.5523 183.22 51.3472 183.22 52.3032V52.314C183.22 53.6138 184.391 54.5376 186.035 54.5376ZM186.035 49.9399C185.1 49.9399 184.461 49.4082 184.461 48.6563V48.6455C184.461 47.8936 185.1 47.3618 186.035 47.3618C186.969 47.3618 187.609 47.8936 187.609 48.6455V48.6563C187.609 49.4082 186.969 49.9399 186.035 49.9399ZM186.035 53.6943C184.966 53.6943 184.203 53.0928 184.203 52.2549V52.2441C184.203 51.3955 184.961 50.7886 186.035 50.7886C187.109 50.7886 187.866 51.3955 187.866 52.2441V52.2549C187.866 53.0928 187.104 53.6943 186.035 53.6943Z" fill="white"/>
</g>
<g style="mix-blend-mode:soft-light">
<path d="M179.056 54.5913C180.619 54.5913 181.769 53.4688 181.769 51.9219V51.9111C181.769 50.4233 180.684 49.3169 179.228 49.3169C178.181 49.3169 177.45 49.8809 177.166 50.5147H177.064C177.064 50.4556 177.064 50.3911 177.069 50.332C177.128 48.7153 177.703 47.3403 179.11 47.3403C179.894 47.3403 180.437 47.7432 180.673 48.3931L180.694 48.4522H181.667L181.651 48.3823C181.387 47.2383 180.421 46.4756 179.121 46.4756C177.241 46.4756 176.14 48.0225 176.14 50.665V50.6758C176.14 53.5923 177.638 54.5913 179.056 54.5913ZM177.295 51.9111V51.9058C177.295 50.896 178.057 50.1602 179.062 50.1602C180.066 50.1602 180.797 50.9014 180.797 51.9326V51.9434C180.797 52.9478 180.018 53.7373 179.046 53.7373C178.063 53.7373 177.295 52.9316 177.295 51.9111ZM186.035 54.5376C187.678 54.5376 188.849 53.6138 188.849 52.314V52.3032C188.849 51.3472 188.178 50.5523 187.184 50.3213V50.2998C188.033 50.0366 188.57 49.3921 188.57 48.5757V48.5649C188.57 47.3941 187.501 46.5293 186.035 46.5293C184.569 46.5293 183.5 47.3941 183.5 48.5649V48.5757C183.5 49.3921 184.037 50.0366 184.885 50.2998V50.3213C183.892 50.5523 183.22 51.3472 183.22 52.3032V52.314C183.22 53.6138 184.391 54.5376 186.035 54.5376ZM186.035 49.9399C185.1 49.9399 184.461 49.4082 184.461 48.6563V48.6455C184.461 47.8936 185.1 47.3618 186.035 47.3618C186.969 47.3618 187.609 47.8936 187.609 48.6455V48.6563C187.609 49.4082 186.969 49.9399 186.035 49.9399ZM186.035 53.6943C184.966 53.6943 184.203 53.0928 184.203 52.2549V52.2441C184.203 51.3955 184.961 50.7886 186.035 50.7886C187.109 50.7886 187.866 51.3955 187.866 52.2441V52.2549C187.866 53.0928 187.104 53.6943 186.035 53.6943Z" fill="white" fill-opacity="0.35"/>
</g>
<path style="mix-blend-mode:overlay" d="M179.056 54.5913C180.619 54.5913 181.769 53.4688 181.769 51.9219V51.9111C181.769 50.4233 180.684 49.3169 179.228 49.3169C178.181 49.3169 177.45 49.8809 177.166 50.5147H177.064C177.064 50.4556 177.064 50.3911 177.069 50.332C177.128 48.7153 177.703 47.3403 179.11 47.3403C179.894 47.3403 180.437 47.7432 180.673 48.3931L180.694 48.4522H181.667L181.651 48.3823C181.387 47.2383 180.421 46.4756 179.121 46.4756C177.241 46.4756 176.14 48.0225 176.14 50.665V50.6758C176.14 53.5923 177.638 54.5913 179.056 54.5913ZM177.295 51.9111V51.9058C177.295 50.896 178.057 50.1602 179.062 50.1602C180.066 50.1602 180.797 50.9014 180.797 51.9326V51.9434C180.797 52.9478 180.018 53.7373 179.046 53.7373C178.063 53.7373 177.295 52.9316 177.295 51.9111ZM186.035 54.5376C187.678 54.5376 188.849 53.6138 188.849 52.314V52.3032C188.849 51.3472 188.178 50.5523 187.184 50.3213V50.2998C188.033 50.0366 188.57 49.3921 188.57 48.5757V48.5649C188.57 47.3941 187.501 46.5293 186.035 46.5293C184.569 46.5293 183.5 47.3941 183.5 48.5649V48.5757C183.5 49.3921 184.037 50.0366 184.885 50.2998V50.3213C183.892 50.5523 183.22 51.3472 183.22 52.3032V52.314C183.22 53.6138 184.391 54.5376 186.035 54.5376ZM186.035 49.9399C185.1 49.9399 184.461 49.4082 184.461 48.6563V48.6455C184.461 47.8936 185.1 47.3618 186.035 47.3618C186.969 47.3618 187.609 47.8936 187.609 48.6455V48.6563C187.609 49.4082 186.969 49.9399 186.035 49.9399ZM186.035 53.6943C184.966 53.6943 184.203 53.0928 184.203 52.2549V52.2441C184.203 51.3955 184.961 50.7886 186.035 50.7886C187.109 50.7886 187.866 51.3955 187.866 52.2441V52.2549C187.866 53.0928 187.104 53.6943 186.035 53.6943Z" fill="url(#paint1_linear_1404_15951)" fill-opacity="0.35"/>
<g style="mix-blend-mode:overlay">
<path d="M197.965 54.5376C199.609 54.5376 200.78 53.6138 200.78 52.314V52.3032C200.78 51.3472 200.108 50.5523 199.115 50.3213V50.2998C199.963 50.0366 200.5 49.3921 200.5 48.5757V48.5649C200.5 47.3941 199.431 46.5293 197.965 46.5293C196.499 46.5293 195.43 47.3941 195.43 48.5649V48.5757C195.43 49.3921 195.967 50.0366 196.816 50.2998V50.3213C195.822 50.5523 195.151 51.3472 195.151 52.3032V52.314C195.151 53.6138 196.322 54.5376 197.965 54.5376ZM197.965 49.9399C197.031 49.9399 196.391 49.4082 196.391 48.6563V48.6455C196.391 47.8936 197.031 47.3618 197.965 47.3618C198.9 47.3618 199.539 47.8936 199.539 48.6455V48.6563C199.539 49.4082 198.9 49.9399 197.965 49.9399ZM197.965 53.6943C196.896 53.6943 196.134 53.0928 196.134 52.2549V52.2441C196.134 51.3955 196.891 50.7886 197.965 50.7886C199.039 50.7886 199.797 51.3955 199.797 52.2441V52.2549C199.797 53.0928 199.034 53.6943 197.965 53.6943ZM205.148 54.5913C206.711 54.5913 207.86 53.4688 207.86 51.9219V51.9111C207.86 50.4233 206.775 49.3169 205.32 49.3169C204.272 49.3169 203.542 49.8809 203.257 50.5147H203.155C203.155 50.4556 203.155 50.3911 203.16 50.332C203.22 48.7153 203.794 47.3403 205.202 47.3403C205.986 47.3403 206.528 47.7432 206.764 48.3931L206.786 48.4522H207.758L207.742 48.3823C207.479 47.2383 206.512 46.4756 205.212 46.4756C203.332 46.4756 202.231 48.0225 202.231 50.665V50.6758C202.231 53.5923 203.73 54.5913 205.148 54.5913ZM203.386 51.9111V51.9058C203.386 50.896 204.149 50.1602 205.153 50.1602C206.158 50.1602 206.888 50.9014 206.888 51.9326V51.9434C206.888 52.9478 206.109 53.7373 205.137 53.7373C204.154 53.7373 203.386 52.9316 203.386 51.9111Z" fill="white"/>
</g>
<g style="mix-blend-mode:soft-light">
<path d="M197.965 54.5376C199.609 54.5376 200.78 53.6138 200.78 52.314V52.3032C200.78 51.3472 200.108 50.5523 199.115 50.3213V50.2998C199.963 50.0366 200.5 49.3921 200.5 48.5757V48.5649C200.5 47.3941 199.431 46.5293 197.965 46.5293C196.499 46.5293 195.43 47.3941 195.43 48.5649V48.5757C195.43 49.3921 195.967 50.0366 196.816 50.2998V50.3213C195.822 50.5523 195.151 51.3472 195.151 52.3032V52.314C195.151 53.6138 196.322 54.5376 197.965 54.5376ZM197.965 49.9399C197.031 49.9399 196.391 49.4082 196.391 48.6563V48.6455C196.391 47.8936 197.031 47.3618 197.965 47.3618C198.9 47.3618 199.539 47.8936 199.539 48.6455V48.6563C199.539 49.4082 198.9 49.9399 197.965 49.9399ZM197.965 53.6943C196.896 53.6943 196.134 53.0928 196.134 52.2549V52.2441C196.134 51.3955 196.891 50.7886 197.965 50.7886C199.039 50.7886 199.797 51.3955 199.797 52.2441V52.2549C199.797 53.0928 199.034 53.6943 197.965 53.6943ZM205.148 54.5913C206.711 54.5913 207.86 53.4688 207.86 51.9219V51.9111C207.86 50.4233 206.775 49.3169 205.32 49.3169C204.272 49.3169 203.542 49.8809 203.257 50.5147H203.155C203.155 50.4556 203.155 50.3911 203.16 50.332C203.22 48.7153 203.794 47.3403 205.202 47.3403C205.986 47.3403 206.528 47.7432 206.764 48.3931L206.786 48.4522H207.758L207.742 48.3823C207.479 47.2383 206.512 46.4756 205.212 46.4756C203.332 46.4756 202.231 48.0225 202.231 50.665V50.6758C202.231 53.5923 203.73 54.5913 205.148 54.5913ZM203.386 51.9111V51.9058C203.386 50.896 204.149 50.1602 205.153 50.1602C206.158 50.1602 206.888 50.9014 206.888 51.9326V51.9434C206.888 52.9478 206.109 53.7373 205.137 53.7373C204.154 53.7373 203.386 52.9316 203.386 51.9111Z" fill="white" fill-opacity="0.35"/>
</g>
<path style="mix-blend-mode:overlay" d="M197.965 54.5376C199.609 54.5376 200.78 53.6138 200.78 52.314V52.3032C200.78 51.3472 200.108 50.5523 199.115 50.3213V50.2998C199.963 50.0366 200.5 49.3921 200.5 48.5757V48.5649C200.5 47.3941 199.431 46.5293 197.965 46.5293C196.499 46.5293 195.43 47.3941 195.43 48.5649V48.5757C195.43 49.3921 195.967 50.0366 196.816 50.2998V50.3213C195.822 50.5523 195.151 51.3472 195.151 52.3032V52.314C195.151 53.6138 196.322 54.5376 197.965 54.5376ZM197.965 49.9399C197.031 49.9399 196.391 49.4082 196.391 48.6563V48.6455C196.391 47.8936 197.031 47.3618 197.965 47.3618C198.9 47.3618 199.539 47.8936 199.539 48.6455V48.6563C199.539 49.4082 198.9 49.9399 197.965 49.9399ZM197.965 53.6943C196.896 53.6943 196.134 53.0928 196.134 52.2549V52.2441C196.134 51.3955 196.891 50.7886 197.965 50.7886C199.039 50.7886 199.797 51.3955 199.797 52.2441V52.2549C199.797 53.0928 199.034 53.6943 197.965 53.6943ZM205.148 54.5913C206.711 54.5913 207.86 53.4688 207.86 51.9219V51.9111C207.86 50.4233 206.775 49.3169 205.32 49.3169C204.272 49.3169 203.542 49.8809 203.257 50.5147H203.155C203.155 50.4556 203.155 50.3911 203.16 50.332C203.22 48.7153 203.794 47.3403 205.202 47.3403C205.986 47.3403 206.528 47.7432 206.764 48.3931L206.786 48.4522H207.758L207.742 48.3823C207.479 47.2383 206.512 46.4756 205.212 46.4756C203.332 46.4756 202.231 48.0225 202.231 50.665V50.6758C202.231 53.5923 203.73 54.5913 205.148 54.5913ZM203.386 51.9111V51.9058C203.386 50.896 204.149 50.1602 205.153 50.1602C206.158 50.1602 206.888 50.9014 206.888 51.9326V51.9434C206.888 52.9478 206.109 53.7373 205.137 53.7373C204.154 53.7373 203.386 52.9316 203.386 51.9111Z" fill="url(#paint2_linear_1404_15951)" fill-opacity="0.35"/>
<g style="mix-blend-mode:overlay">
<path d="M180.802 40.4087H183.017L190.541 25.4556V23.4985H179.349V25.3735H188.455V25.4204L180.802 40.4087ZM193.319 40.4087H204.475V38.5337H196.213V38.4868L200.233 34.3618C203.338 31.186 204.194 29.7915 204.194 27.9399V27.9165C204.194 25.2681 201.955 23.2173 198.897 23.2173C195.745 23.2173 193.213 25.3853 193.213 28.3149V28.3853H195.252V28.3267C195.252 26.5103 196.823 25.0571 198.932 25.0571C200.772 25.0571 202.073 26.2993 202.084 28.022V28.0454C202.084 29.4517 201.557 30.3657 199.272 32.7446L193.319 38.9556V40.4087Z" fill="white"/>
</g>
<g style="mix-blend-mode:soft-light">
<path d="M180.802 40.4087H183.017L190.541 25.4556V23.4985H179.349V25.3735H188.455V25.4204L180.802 40.4087ZM193.319 40.4087H204.475V38.5337H196.213V38.4868L200.233 34.3618C203.338 31.186 204.194 29.7915 204.194 27.9399V27.9165C204.194 25.2681 201.955 23.2173 198.897 23.2173C195.745 23.2173 193.213 25.3853 193.213 28.3149V28.3853H195.252V28.3267C195.252 26.5103 196.823 25.0571 198.932 25.0571C200.772 25.0571 202.073 26.2993 202.084 28.022V28.0454C202.084 29.4517 201.557 30.3657 199.272 32.7446L193.319 38.9556V40.4087Z" fill="white" fill-opacity="0.35"/>
</g>
<path style="mix-blend-mode:overlay" d="M180.802 40.4087H183.017L190.541 25.4556V23.4985H179.349V25.3735H188.455V25.4204L180.802 40.4087ZM193.319 40.4087H204.475V38.5337H196.213V38.4868L200.233 34.3618C203.338 31.186 204.194 29.7915 204.194 27.9399V27.9165C204.194 25.2681 201.955 23.2173 198.897 23.2173C195.745 23.2173 193.213 25.3853 193.213 28.3149V28.3853H195.252V28.3267C195.252 26.5103 196.823 25.0571 198.932 25.0571C200.772 25.0571 202.073 26.2993 202.084 28.022V28.0454C202.084 29.4517 201.557 30.3657 199.272 32.7446L193.319 38.9556V40.4087Z" fill="url(#paint3_linear_1404_15951)" fill-opacity="0.35"/>
<g style="mix-blend-mode:overlay">
<path d="M180.5 13.4087C182.433 13.4087 184 11.8417 184 9.90869C184 7.97569 182.433 6.40869 180.5 6.40869C178.567 6.40869 177 7.97569 177 9.90869C177 11.8417 178.567 13.4087 180.5 13.4087Z" fill="white"/>
</g>
<g style="mix-blend-mode:soft-light">
<path d="M180.5 13.4087C182.433 13.4087 184 11.8417 184 9.90869C184 7.97569 182.433 6.40869 180.5 6.40869C178.567 6.40869 177 7.97569 177 9.90869C177 11.8417 178.567 13.4087 180.5 13.4087Z" fill="white" fill-opacity="0.35"/>
</g>
<path style="mix-blend-mode:overlay" d="M180.5 13.4087C182.433 13.4087 184 11.8417 184 9.90869C184 7.97569 182.433 6.40869 180.5 6.40869C178.567 6.40869 177 7.97569 177 9.90869C177 11.8417 178.567 13.4087 180.5 13.4087Z" fill="url(#paint4_linear_1404_15951)" fill-opacity="0.35"/>
<g opacity="0.2">
<g style="mix-blend-mode:overlay">
<path d="M308 29.5C308 44.964 295.464 57.5 280 57.5C264.536 57.5 252 44.964 252 29.5C252 14.036 264.536 1.5 280 1.5C295.464 1.5 308 14.036 308 29.5ZM257.6 29.5C257.6 41.8712 267.629 51.9 280 51.9C292.371 51.9 302.4 41.8712 302.4 29.5C302.4 17.1288 292.371 7.1 280 7.1C267.629 7.1 257.6 17.1288 257.6 29.5Z" fill="white"/>
</g>
<g style="mix-blend-mode:soft-light">
<path d="M308 29.5C308 44.964 295.464 57.5 280 57.5C264.536 57.5 252 44.964 252 29.5C252 14.036 264.536 1.5 280 1.5C295.464 1.5 308 14.036 308 29.5ZM257.6 29.5C257.6 41.8712 267.629 51.9 280 51.9C292.371 51.9 302.4 41.8712 302.4 29.5C302.4 17.1288 292.371 7.1 280 7.1C267.629 7.1 257.6 17.1288 257.6 29.5Z" fill="white" fill-opacity="0.35"/>
</g>
<path style="mix-blend-mode:overlay" d="M308 29.5C308 44.964 295.464 57.5 280 57.5C264.536 57.5 252 44.964 252 29.5C252 14.036 264.536 1.5 280 1.5C295.464 1.5 308 14.036 308 29.5ZM257.6 29.5C257.6 41.8712 267.629 51.9 280 51.9C292.371 51.9 302.4 41.8712 302.4 29.5C302.4 17.1288 292.371 7.1 280 7.1C267.629 7.1 257.6 17.1288 257.6 29.5Z" fill="url(#paint5_linear_1404_15951)" fill-opacity="0.35"/>
</g>
<g opacity="0.2">
<g style="mix-blend-mode:overlay">
<path d="M300 29.5C300 40.5457 291.046 49.5 280 49.5C268.954 49.5 260 40.5457 260 29.5C260 18.4543 268.954 9.5 280 9.5C291.046 9.5 300 18.4543 300 29.5ZM266 29.5C266 37.232 272.268 43.5 280 43.5C287.732 43.5 294 37.232 294 29.5C294 21.768 287.732 15.5 280 15.5C272.268 15.5 266 21.768 266 29.5Z" fill="white"/>
</g>
<g style="mix-blend-mode:soft-light">
<path d="M300 29.5C300 40.5457 291.046 49.5 280 49.5C268.954 49.5 260 40.5457 260 29.5C260 18.4543 268.954 9.5 280 9.5C291.046 9.5 300 18.4543 300 29.5ZM266 29.5C266 37.232 272.268 43.5 280 43.5C287.732 43.5 294 37.232 294 29.5C294 21.768 287.732 15.5 280 15.5C272.268 15.5 266 21.768 266 29.5Z" fill="white" fill-opacity="0.35"/>
</g>
<path style="mix-blend-mode:overlay" d="M300 29.5C300 40.5457 291.046 49.5 280 49.5C268.954 49.5 260 40.5457 260 29.5C260 18.4543 268.954 9.5 280 9.5C291.046 9.5 300 18.4543 300 29.5ZM266 29.5C266 37.232 272.268 43.5 280 43.5C287.732 43.5 294 37.232 294 29.5C294 21.768 287.732 15.5 280 15.5C272.268 15.5 266 21.768 266 29.5Z" fill="url(#paint6_linear_1404_15951)" fill-opacity="0.35"/>
</g>
<g opacity="0.2">
<g style="mix-blend-mode:overlay">
<path d="M292 29.5C292 36.1274 286.627 41.5 280 41.5C273.373 41.5 268 36.1274 268 29.5C268 22.8726 273.373 17.5 280 17.5C286.627 17.5 292 22.8726 292 29.5ZM274 29.5C274 32.8137 276.686 35.5 280 35.5C283.314 35.5 286 32.8137 286 29.5C286 26.1863 283.314 23.5 280 23.5C276.686 23.5 274 26.1863 274 29.5Z" fill="white"/>
</g>
<g style="mix-blend-mode:soft-light">
<path d="M292 29.5C292 36.1274 286.627 41.5 280 41.5C273.373 41.5 268 36.1274 268 29.5C268 22.8726 273.373 17.5 280 17.5C286.627 17.5 292 22.8726 292 29.5ZM274 29.5C274 32.8137 276.686 35.5 280 35.5C283.314 35.5 286 32.8137 286 29.5C286 26.1863 283.314 23.5 280 23.5C276.686 23.5 274 26.1863 274 29.5Z" fill="white" fill-opacity="0.35"/>
</g>
<path style="mix-blend-mode:overlay" d="M292 29.5C292 36.1274 286.627 41.5 280 41.5C273.373 41.5 268 36.1274 268 29.5C268 22.8726 273.373 17.5 280 17.5C286.627 17.5 292 22.8726 292 29.5ZM274 29.5C274 32.8137 276.686 35.5 280 35.5C283.314 35.5 286 32.8137 286 29.5C286 26.1863 283.314 23.5 280 23.5C276.686 23.5 274 26.1863 274 29.5Z" fill="url(#paint7_linear_1404_15951)" fill-opacity="0.35"/>
</g>
<defs>
<linearGradient id="paint0_linear_1404_15951" x1="182.372" y1="39.0518" x2="182.372" y2="18.6306" gradientUnits="userSpaceOnUse">
<stop stop-color="white"/>
<stop offset="1" stop-color="white" stop-opacity="0"/>
</linearGradient>
<linearGradient id="paint1_linear_1404_15951" x1="179.921" y1="54.7869" x2="179.921" y2="48.6692" gradientUnits="userSpaceOnUse">
<stop stop-color="white"/>
<stop offset="1" stop-color="white" stop-opacity="0"/>
</linearGradient>
<linearGradient id="paint2_linear_1404_15951" x1="198.921" y1="54.7869" x2="198.921" y2="48.6692" gradientUnits="userSpaceOnUse">
<stop stop-color="white"/>
<stop offset="1" stop-color="white" stop-opacity="0"/>
</linearGradient>
<linearGradient id="paint3_linear_1404_15951" x1="187.186" y1="41.5516" x2="187.186" y2="25.5516" gradientUnits="userSpaceOnUse">
<stop stop-color="white"/>
<stop offset="1" stop-color="white" stop-opacity="0"/>
</linearGradient>
<linearGradient id="paint4_linear_1404_15951" x1="179.296" y1="11.9969" x2="179.296" y2="8.70281" gradientUnits="userSpaceOnUse">
<stop stop-color="white"/>
<stop offset="1" stop-color="white" stop-opacity="0"/>
</linearGradient>
<linearGradient id="paint5_linear_1404_15951" x1="270.372" y1="46.2059" x2="270.372" y2="19.8529" gradientUnits="userSpaceOnUse">
<stop stop-color="white"/>
<stop offset="1" stop-color="white" stop-opacity="0"/>
</linearGradient>
<linearGradient id="paint6_linear_1404_15951" x1="273.123" y1="41.4328" x2="273.123" y2="22.6092" gradientUnits="userSpaceOnUse">
<stop stop-color="white"/>
<stop offset="1" stop-color="white" stop-opacity="0"/>
</linearGradient>
<linearGradient id="paint7_linear_1404_15951" x1="275.874" y1="36.6597" x2="275.874" y2="25.3655" gradientUnits="userSpaceOnUse">
<stop stop-color="white"/>
<stop offset="1" stop-color="white" stop-opacity="0"/>
</linearGradient>
</defs>
</svg>
